<?xml version="1.0" standalone="no"?>
<!DOCTYPE svg PUBLIC "-//W3C//DTD SVG 20010904//EN"
 "http://www.w3.org/TR/2001/REC-SVG-20010904/DTD/svg10.dtd">
<svg version="1.0" xmlns="http://www.w3.org/2000/svg"
 width="340.000000pt" height="148.000000pt" viewBox="0 0 340.000000 148.000000"
 preserveAspectRatio="xMidYMid meet">

<g transform="translate(0.000000,148.000000) scale(0.100000,-0.100000)"
fill="#000000" stroke="none">
<path d="M300 890 l0 -590 295 0 295 0 0 590 0 590 -295 0 -295 0 0 -590z
m304 -56 c-3 -41 -2 -44 11 -28 8 12 10 21 3 25 -6 4 -5 9 3 15 7 4 14 3 17
-4 2 -7 10 -12 18 -12 19 0 18 -14 -3 -47 -16 -25 -23 -28 -64 -25 -38 2 -48
7 -58 28 -6 14 -11 28 -11 32 0 13 40 33 51 26 8 -4 7 -9 -2 -15 -7 -4 -10
-11 -6 -15 11 -12 20 3 22 38 3 41 3 40 13 34 5 -3 7 -26 6 -52z m182 -71 c-3
-3 -1 -16 4 -29 6 -16 6 -24 -1 -24 -6 0 -8 -4 -5 -8 3 -5 19 -7 36 -4 18 2
30 0 30 -7 0 -11 -13 -15 -37 -12 -17 2 -16 -5 3 -33 14 -23 14 -25 -8 -40
-19 -14 -19 -20 2 -18 3 0 5 -16 5 -36 -1 -20 -6 -36 -11 -35 -5 1 -18 5 -29
8 -20 5 -20 6 -1 20 18 14 18 15 -7 26 -15 7 -24 16 -21 20 3 5 -2 9 -12 9
-11 0 -15 -6 -11 -20 3 -13 0 -20 -9 -20 -8 0 -14 -4 -14 -9 0 -5 -9 -7 -20
-4 -25 7 -20 29 4 25 14 -3 15 0 7 16 -8 16 -6 21 13 32 13 7 29 9 35 6 6 -4
11 -5 11 -2 0 3 -9 10 -21 16 -24 13 -46 0 -60 -37 -5 -13 -24 -31 -43 -40
-34 -16 -37 -15 -71 3 -20 10 -38 29 -42 42 -6 26 -34 44 -51 33 -9 -5 -4 -11
13 -19 20 -9 25 -17 20 -32 -5 -15 -3 -18 9 -14 11 4 16 0 16 -15 0 -19 6 -21
63 -21 81 0 137 -10 137 -24 0 -6 16 -11 37 -11 27 0 38 -5 41 -16 2 -14 -7
-18 -50 -21 -56 -5 -84 6 -58 22 10 7 -21 10 -92 10 -101 0 -106 -1 -101 -20
5 -18 1 -19 -48 -13 -63 7 -63 7 -55 29 5 12 15 15 41 12 24 -3 35 0 35 9 0 7
9 13 20 13 11 0 20 5 20 11 0 6 -6 9 -13 6 -14 -5 -39 18 -30 27 4 3 -3 15
-15 26 -12 12 -22 16 -22 11 0 -5 5 -13 11 -17 7 -4 -1 -12 -20 -20 -29 -12
-45 -37 -20 -32 6 2 14 -3 16 -9 3 -9 -5 -13 -24 -13 -27 0 -29 2 -25 35 2 19
9 35 15 35 6 0 2 6 -9 14 -19 14 -19 15 0 47 19 32 19 32 -2 27 -12 -4 -26 0
-33 8 -9 11 -7 14 14 14 38 0 52 -23 32 -54 -16 -24 -16 -26 -1 -26 9 0 16 7
16 15 0 9 10 20 23 25 14 6 16 9 6 9 -16 1 -36 36 -33 59 1 6 2 19 3 27 1 17
38 20 61 5 8 -5 11 -10 5 -11 -5 0 -1 -4 10 -9 17 -7 16 -9 -10 -10 -26 0 -28
-2 -12 -11 15 -9 23 -7 40 8 29 25 160 26 194 2 24 -16 21 -32 -3 -22 -10 4
-14 -3 -14 -25 0 -28 1 -29 24 -19 16 8 20 14 13 19 -8 5 -6 13 7 27 17 19 18
21 2 21 -15 0 -15 1 1 19 10 10 25 20 33 23 16 6 44 -2 36 -9z"/>
<path d="M530 811 c0 -5 7 -11 14 -14 10 -4 13 -1 9 9 -6 15 -23 19 -23 5z"/>
<path d="M637 813 c-4 -3 -7 -11 -7 -17 0 -6 5 -5 12 2 6 6 9 14 7 17 -3 3 -9
2 -12 -2z"/>
<path d="M600 706 c0 -8 -6 -16 -12 -19 -7 -2 -10 -8 -6 -12 12 -13 38 4 38
25 0 11 -4 20 -10 20 -5 0 -10 -6 -10 -14z"/>
<path d="M641 704 c0 -11 3 -14 6 -6 3 7 2 16 -1 19 -3 4 -6 -2 -5 -13z"/>
<path d="M490 700 c-8 -5 -10 -10 -5 -10 6 0 4 -4 -3 -9 -10 -6 -9 -10 7 -14
17 -4 21 -1 21 19 0 27 0 27 -20 14z"/>
<path d="M765 678 c-8 -8 -4 -19 12 -36 13 -14 26 -22 30 -18 4 3 1 12 -5 18
-7 7 -12 20 -12 30 0 20 -10 23 -25 6z"/>
<path d="M540 648 c0 -4 13 -5 29 -2 23 5 30 2 36 -15 3 -12 11 -21 16 -21 6
0 7 -4 4 -10 -3 -5 -1 -10 5 -10 7 0 10 3 8 8 -30 61 -31 62 -65 60 -18 -1
-33 -6 -33 -10z"/>
<path d="M570 629 c0 -5 5 -7 10 -4 6 3 10 8 10 11 0 2 -4 4 -10 4 -5 0 -10
-5 -10 -11z"/>
<path d="M1421 825 c-1 -11 -11 -25 -23 -30 -31 -14 -33 -78 -3 -83 19 -4 19
-3 2 10 -23 17 -19 61 6 66 13 3 17 -4 17 -32 0 -19 4 -37 8 -40 5 -3 7 21 5
52 -5 61 -11 90 -12 57z"/>
<path d="M1854 825 c-11 -27 -9 -115 1 -115 7 0 9 15 7 36 -3 24 0 39 9 45 10
6 11 9 2 9 -22 0 -14 28 10 33 l22 4 -23 2 c-12 0 -25 -6 -28 -14z"/>
<path d="M2000 775 c0 -37 4 -65 10 -65 6 0 10 28 10 65 0 37 -4 65 -10 65 -6
0 -10 -28 -10 -65z"/>
<path d="M2475 775 c0 -37 4 -65 10 -65 6 0 9 19 8 42 -1 24 -2 53 -2 66 -1
12 -4 22 -8 22 -5 0 -8 -29 -8 -65z"/>
<path d="M2729 777 c-2 -41 0 -67 6 -67 6 0 9 20 7 48 -5 84 -8 88 -13 19z"/>
<path d="M3007 821 c3 -13 -2 -20 -21 -25 -51 -13 -42 -88 10 -84 23 2 24 6
24 65 0 35 -4 63 -9 63 -5 0 -7 -8 -4 -19z m1 -63 c-3 -36 -30 -46 -36 -15 -5
26 5 47 23 47 12 0 15 -8 13 -32z"/>
<path d="M1035 770 c0 -36 4 -60 11 -60 6 0 9 13 6 33 l-5 32 27 -32 c15 -18
33 -33 39 -33 6 0 -2 14 -18 30 l-29 30 22 30 c28 38 19 39 -14 3 l-25 -28 4
28 c2 16 0 27 -7 27 -7 0 -11 -23 -11 -60z"/>
<path d="M2220 826 c0 -3 6 -11 13 -18 7 -7 25 -33 39 -57 l26 -44 4 62 c3 65
-9 86 -14 24 l-3 -38 -22 38 c-12 20 -27 37 -33 37 -5 0 -10 -2 -10 -4z"/>
<path d="M1944 796 c-3 -8 -4 -29 -2 -47 2 -25 8 -34 23 -36 11 -2 14 0 8 3
-16 7 -17 71 -1 76 7 3 5 7 -5 11 -11 4 -20 1 -23 -7z"/>
<path d="M2418 805 c-10 -11 8 -89 22 -93 12 -4 13 -2 3 9 -20 20 -17 69 5 69
14 0 15 2 2 10 -17 11 -24 12 -32 5z"/>
<path d="M1135 755 c0 -25 5 -45 10 -45 6 0 9 19 7 45 -2 25 -7 45 -11 45 -3
0 -6 -20 -6 -45z"/>
<path d="M1185 754 c0 -24 5 -44 10 -44 6 0 10 17 10 37 0 53 29 53 33 1 2
-21 7 -38 11 -38 4 0 5 19 2 43 -6 38 -9 42 -36 44 -29 1 -30 0 -30 -43z"/>
<path d="M1292 792 c-7 -5 -11 -22 -9 -43 4 -28 9 -35 31 -37 33 -4 35 -32 2
-32 -13 0 -27 6 -29 13 -3 7 -6 4 -6 -6 -1 -15 5 -18 32 -15 41 4 46 40 7 48
-20 4 -25 11 -25 35 0 21 5 31 19 33 15 3 18 -1 14 -22 -3 -14 -1 -26 3 -26 9
0 11 6 13 33 1 6 6 15 11 19 14 10 -47 10 -63 0z"/>
<path d="M1472 788 c-29 -29 -3 -84 35 -76 25 5 40 52 23 72 -15 19 -41 21
-58 4z m53 -18 c7 -23 -10 -50 -31 -50 -18 0 -28 38 -14 55 18 21 38 18 45 -5z"/>
<path d="M1565 755 c0 -25 5 -45 10 -45 6 0 9 19 7 45 -2 25 -7 45 -11 45 -3
0 -6 -20 -6 -45z"/>
<path d="M1604 788 c14 -11 17 -23 14 -46 -3 -20 0 -32 7 -32 8 0 9 14 6 42
-5 32 -11 44 -26 46 -19 4 -19 3 -1 -10z"/>
<path d="M1654 788 c14 -11 17 -23 14 -46 -3 -20 0 -32 7 -32 8 0 9 14 6 42
-5 32 -11 44 -26 46 -19 4 -19 3 -1 -10z"/>
<path d="M1756 784 c-19 -18 -20 -28 -6 -55 21 -39 70 -16 70 32 0 38 -36 51
-64 23z m49 -5 c12 -19 -4 -61 -23 -57 -30 6 -28 68 2 68 8 0 18 -5 21 -11z"/>
<path d="M2044 788 c14 -11 17 -23 14 -46 -3 -20 0 -32 7 -32 8 0 9 14 6 42
-5 32 -11 44 -26 46 -19 4 -19 3 -1 -10z"/>
<path d="M2100 776 c-5 -14 -7 -32 -4 -41 7 -18 43 -30 55 -18 6 6 1 9 -13 9
-17 -1 -24 5 -26 23 -5 35 16 51 35 26 l15 -20 -4 20 c-5 31 -46 32 -58 1z"/>
<path d="M2340 786 c-26 -32 13 -97 41 -69 8 8 7 11 -6 10 -22 -2 -40 25 -32
47 8 20 37 21 37 1 0 -8 5 -15 10 -15 7 0 7 6 0 20 -13 24 -33 26 -50 6z"/>
<path d="M2518 793 c7 -2 12 -22 12 -44 0 -21 5 -39 10 -39 11 0 14 49 4 74
-3 9 -14 16 -23 15 -10 0 -11 -2 -3 -6z"/>
<path d="M2579 779 c-8 -16 -8 -28 0 -45 10 -23 44 -33 55 -16 3 5 -5 8 -17 8
-18 -1 -23 5 -25 32 -3 28 0 33 15 30 10 -2 17 -10 16 -16 -2 -7 2 -12 8 -12
6 0 8 7 5 16 -3 9 -6 18 -6 20 0 14 -41 0 -51 -17z"/>
<path d="M2665 754 c0 -25 5 -44 11 -44 6 0 9 13 6 32 -3 22 0 35 12 43 15 11
14 13 -6 13 -20 0 -23 -5 -23 -44z"/>
<path d="M2776 792 c-3 -5 4 -8 16 -8 31 1 33 -21 3 -28 -36 -9 -30 -41 8 -42
27 -1 28 1 25 40 -2 33 -7 42 -25 44 -11 2 -24 -1 -27 -6z m44 -51 c0 -14 -18
-23 -30 -16 -6 4 -8 11 -5 16 8 12 35 12 35 0z"/>
<path d="M2858 755 c2 -25 8 -45 13 -45 5 0 9 20 9 45 0 29 -4 45 -13 45 -8 0
-11 -14 -9 -45z"/>
<path d="M2904 784 c11 -11 16 -27 14 -46 -3 -17 0 -28 7 -28 8 0 9 14 6 42
-5 32 -11 44 -25 46 -19 4 -19 3 -2 -14z"/>
<path d="M3053 784 c-4 -11 2 -23 18 -35 21 -16 22 -19 7 -24 -9 -4 -23 -3
-30 1 -10 5 -10 4 -2 -6 15 -15 54 -4 54 15 0 8 -9 19 -20 25 -25 13 -26 27
-2 33 16 4 16 5 -1 6 -10 0 -20 -6 -24 -15z"/>
<path d="M2228 750 c-2 -22 0 -40 4 -40 5 0 8 18 8 40 0 22 -2 40 -4 40 -2 0
-6 -18 -8 -40z"/>
</g>
</svg>
